PathFileType	4	(X/Y/Z)
DataRate	CameraRate	NumFrames	NumMarkers	Units	OrigDataRate	OrigDataStartFrame	OrigNumFrames	
  100.0	  100.0	    4	     56	     mm	  100.0	      222	    253
Frame#	Time	LASI			RASI			LPSI			RPSI			RTH1			RTH2			RTH3			RLFC			RMFC			LTH1			LTH2			LTH3			LLFC			LMFC			RTB1			RTB2			RTB3			RLMAL			RMMAL			LTB1			LTB2			LTB3			LMMAL			LLMAL			RCAL			RTOE			RMT5			LCAL			LTOE			LMT5			LACR			RACR			CLAV			C7			LASH			LPSH			RASH			RPSH			RUA1			RUA2			RUA3			RLEL			RMEL			LUA1			LUA2			LUA3			LLEL			LMEL			RFAsuperior			RFAradius			RFAulna			LFAsuperior			LFAradius			LFAulna			RHJC			LHJC			
		X1	Y1	Z1	X2	Y2	Z2	X3	Y3	Z3	X4	Y4	Z4	X5	Y5	Z5	X6	Y6	Z6	X7	Y7	Z7	X8	Y8	Z8	X9	Y9	Z9	X10	Y10	Z10	X11	Y11	Z11	X12	Y12	Z12	X13	Y13	Z13	X14	Y14	Z14	X15	Y15	Z15	X16	Y16	Z16	X17	Y17	Z17	X18	Y18	Z18	X19	Y19	Z19	X20	Y20	Z20	X21	Y21	Z21	X22	Y22	Z22	X23	Y23	Z23	X24	Y24	Z24	X25	Y25	Z25	X26	Y26	Z26	X27	Y27	Z27	X28	Y28	Z28	X29	Y29	Z29	X30	Y30	Z30	X31	Y31	Z31	X32	Y32	Z32	X33	Y33	Z33	X34	Y34	Z34	X35	Y35	Z35	X36	Y36	Z36	X37	Y37	Z37	X38	Y38	Z38	X39	Y39	Z39	X40	Y40	Z40	X41	Y41	Z41	X42	Y42	Z42	X43	Y43	Z43	X44	Y44	Z44	X45	Y45	Z45	X46	Y46	Z46	X47	Y47	Z47	X48	Y48	Z48	X49	Y49	Z49	X50	Y50	Z50	X51	Y51	Z51	X52	Y52	Z52	X53	Y53	Z53	X54	Y54	Z54	X55	Y55	Z55	X56	Y56	Z56	

239	2.39000	507.35483	1050.31394	-632.64033	525.68614	1043.73383	-361.54329	340.24252	1065.92759	-538.69074	345.72467	1063.10666	-440.42280	422.85964	861.54850	-304.91393	504.10421	759.71963	-306.04714	426.89367	639.48594	-320.26821	465.77299	520.07656	-314.03741	455.43230	509.10246	-438.78742	429.46991	862.90622	-679.53672	501.89889	737.26839	-682.21423	446.28819	618.22346	-673.72003	465.19182	526.51203	-676.49834	456.22504	517.14071	-550.56159	483.00046	389.32810	-363.83633	453.83644	341.76350	-293.08744	459.29278	225.67348	-346.46839	406.96765	113.09093	-289.26907	433.85289	120.31601	-380.95314	480.72725	378.39576	-626.67489	423.45929	306.77247	-695.75565	457.19324	223.70358	-631.52306	436.17767	122.27775	-590.61693	409.76119	118.61183	-680.84765	339.40625	100.38090	-340.72467	563.57563	70.80051	-348.22762	513.37164	60.11610	-257.97249	338.70684	96.91415	-624.55376	568.59768	67.86727	-638.69261	507.51751	53.69282	-723.70689	582.11810	1516.77209	-644.48385	603.88139	1498.12019	-347.58070	628.85044	1412.43903	-471.08212	549.63431	1528.39496	-492.17549	614.06908	1444.93669	-658.68906	497.32595	1495.02924	-668.61340	616.60573	1422.17152	-342.53420	505.01646	1494.58089	-317.84085	553.05238	1486.93731	-246.99130	492.33617	1422.38757	-223.54942	525.48889	1427.00915	-149.45313	507.09259	1386.80941	-46.21277	484.92370	1316.10224	-85.02516	523.38885	1488.61691	-739.73240	483.93628	1404.57326	-763.52196	491.29721	1406.38946	-850.94415	502.51274	1374.67957	-936.24464	489.68772	1309.12085	-894.77771	615.93425	1372.77336	-42.76607	762.64583	1337.27364	-68.10204	742.12391	1270.98517	-56.87475	613.89122	1361.85410	-953.63516	765.31112	1324.19089	-942.03900	752.18843	1254.39568	-942.98304	448.44775	955.58402	-400.04730	441.23099	966.92088	-574.71637	
240	2.40000	507.35347	1050.31624	-632.65963	525.66047	1043.74795	-361.59085	341.54199	1065.58807	-539.20728	345.81911	1063.06180	-440.44288	422.93556	861.55323	-304.90782	504.15972	759.72840	-306.06030	426.95040	639.49061	-320.27153	465.82858	520.07702	-314.05769	455.45116	509.10731	-438.78424	430.60405	863.00826	-680.71470	502.33302	737.22412	-682.16439	447.33426	618.25068	-674.62515	465.62192	526.51097	-676.44107	456.27703	517.16589	-550.55189	483.50397	389.38873	-363.76707	453.90695	341.69882	-293.08335	459.71207	225.75072	-346.40221	407.02221	113.12872	-289.25113	434.43118	120.41028	-380.88855	481.03896	378.38202	-626.66954	424.38975	306.98984	-696.62243	458.16096	223.93228	-632.42221	436.24011	122.28462	-590.62680	411.42723	118.44789	-681.10811	339.42953	100.36392	-340.75602	564.71839	71.48141	-347.57773	514.11266	59.78867	-258.11435	339.75628	96.65495	-624.76802	569.78170	68.35786	-638.02021	508.77248	54.09553	-722.98539	582.47486	1516.68361	-644.46534	603.95688	1498.11357	-347.59924	629.30587	1412.30980	-470.93504	550.23983	1528.21696	-492.17271	614.49275	1444.79529	-658.61040	497.91023	1494.81748	-668.84653	616.68027	1422.16371	-342.54586	505.07662	1494.58685	-317.86771	553.39366	1486.84881	-246.95894	492.40682	1422.42245	-223.58483	525.54056	1427.02638	-149.47575	507.35651	1386.77451	-46.20510	484.99229	1316.12816	-85.06497	523.89160	1488.38381	-740.09003	485.08729	1404.29589	-764.02664	492.45672	1406.14714	-851.49832	503.38861	1374.41759	-936.93006	489.72571	1309.08369	-894.78829	615.98829	1372.78857	-42.78971	762.65299	1337.28227	-68.15303	742.17263	1271.00120	-56.90167	614.27750	1361.69082	-953.60540	765.70248	1324.04277	-941.97338	752.57073	1254.27472	-942.90317	448.63273	955.52993	-400.16419	441.61138	966.84416	-574.83762	
241	2.41000	507.35204	1050.31735	-632.67979	525.68585	1043.75336	-361.61513	342.64674	1065.27780	-539.63710	345.97202	1062.89524	-440.43453	423.01532	861.52992	-304.87567	504.20754	759.70599	-306.03898	427.01615	639.47430	-320.25085	465.86043	520.04900	-314.07709	455.46918	509.10632	-438.78575	431.56584	863.08698	-681.71103	502.72669	737.17992	-682.12944	448.20291	618.27323	-675.41239	466.04814	526.49292	-676.41408	456.29940	517.17417	-550.55417	483.90354	389.43248	-363.72157	453.96125	341.67464	-293.08207	460.05274	225.77356	-346.35288	407.06881	113.14680	-289.24348	434.83687	120.47322	-380.84565	481.18106	378.35069	-626.69556	425.01166	307.11004	-697.24621	458.82527	224.06524	-633.08199	436.29490	122.26030	-590.60219	413.37039	118.11318	-681.18406	339.44003	100.32429	-340.73100	565.67992	71.67339	-347.03266	514.79535	59.43206	-258.13426	340.75019	96.32633	-624.97732	571.03071	68.87807	-637.31685	509.83779	54.37832	-722.44550	582.83099	1516.56300	-644.46668	604.05663	1498.07011	-347.59582	629.73408	1412.14078	-470.77283	550.86122	1527.93719	-492.22344	614.89763	1444.63066	-658.55304	498.39214	1494.51468	-668.95776	616.82424	1422.10461	-342.49298	505.14065	1494.52966	-317.88851	553.72984	1486.74116	-246.90746	492.50325	1422.35732	-223.58650	525.62438	1427.00535	-149.47712	507.68760	1386.68232	-46.18044	484.94067	1316.16843	-85.08376	524.31204	1488.12699	-740.36426	486.06498	1404.01955	-764.45601	493.44536	1405.90100	-851.99917	504.15506	1374.17134	-937.54281	489.75835	1309.04804	-894.80759	616.07632	1372.77473	-42.79643	762.65422	1337.27481	-68.20494	742.22885	1270.99987	-56.92916	614.65499	1361.51268	-953.60815	766.04581	1323.90002	-941.93395	752.89973	1254.16571	-942.84604	448.86276	955.44912	-400.25706	441.99287	966.74790	-574.93253	
242	2.42000	507.34902	1050.31724	-632.69793	525.69854	1043.75537	-361.64207	343.32963	1065.05804	-539.90170	346.08510	1062.73963	-440.40518	423.08527	861.49862	-304.83889	504.23588	759.67308	-306.01090	427.07568	639.45697	-320.22493	465.85802	520.00319	-314.09373	455.49328	509.10226	-438.79427	432.17393	863.12105	-682.36379	502.96765	737.14900	-682.12050	448.70237	618.26115	-675.86042	466.32706	526.47030	-676.41713	456.29055	517.16248	-550.56950	484.13347	389.45053	-363.70855	453.99271	341.69986	-293.08383	460.24741	225.76523	-346.33128	407.09621	113.13807	-289.24564	435.04633	120.50341	-380.82315	481.16169	378.31292	-626.73293	425.34307	307.15755	-697.62363	459.19999	224.12593	-633.49653	436.33023	122.22548	-590.57084	414.85150	117.75312	-681.14143	339.44490	100.30678	-340.66959	566.16527	71.43198	-346.81074	515.23747	59.16321	-258.10682	341.45801	96.03365	-625.15302	571.86569	69.24551	-636.84416	510.35531	54.46335	-722.25750	583.07880	1516.45627	-644.49158	604.13550	1498.02320	-347.59928	630.02088	1412.00436	-470.67105	551.26458	1527.71777	-492.28552	615.16798	1444.49888	-658.53575	498.69896	1494.25166	-669.00822	616.95926	1422.04142	-342.43924	505.18693	1494.46081	-317.92475	553.96627	1486.65784	-246.87764	492.57947	1422.26938	-223.58371	525.70358	1426.97664	-149.47925	507.95409	1386.60384	-46.16438	484.82769	1316.20862	-85.07950	524.57683	1487.92603	-740.52946	486.68782	1403.82896	-764.76607	494.06617	1405.70263	-852.33577	504.65173	1373.98665	-937.94617	489.78556	1309.00818	-894.82820	616.16390	1372.75909	-42.81036	762.68268	1337.27896	-68.25054	742.29549	1271.00185	-56.95830	614.92067	1361.37302	-953.63099	766.27052	1323.79641	-941.93026	753.11753	1254.08652	-942.82999	449.03948	955.37952	-400.31756	442.23941	966.67272	-574.99361	
